# xmcd
#
# Track frame offsets:
#	150
#	13198
#	29092
#	41885
#	57247
#	70070
#	84285
#	97469
#	110062
#	123298
#	136453
#	150077
#	163323
#	178522
#
# Disc length: 2544 seconds
#
# Revision: 18
# Processed by: cddbd v1.5.2PL0 Copyright (c) Steve Scherf et al.
# Submitted via: EasyCDDAExtractor 12.0.4.1
#
DISCID=c309ee0e
DTITLE=ชรินทร์ นันทนาคร - รักแท้
DYEAR=1968
DGENRE=Country
TTITLE0=รักแท้
TTITLE1=เรือนหอรอรัก
TTITLE2=กุหลาบในมือเธอ
TTITLE3=บุเรงนองพ่ายรัก
TTITLE4=ดังไร้แผ่นดิน
TTITLE5=การะเกด
TTITLE6=เนื้อนวล
TTITLE7=เกล็ดแก้ว
TTITLE8=คิมหันต์พิศวาส
TTITLE9=เหมันต์พิศวาส
TTITLE10=รักเที่ยงคืน
TTITLE11=หมายแข
TTITLE12=ดาวคลี่
TTITLE13=คืนสุดท้าย
EXTD=
EXTT0=
EXTT1=
EXTT2=
EXTT3=
EXTT4=
EXTT5=
EXTT6=
EXTT7=
EXTT8=
EXTT9=
EXTT10=
EXTT11=
EXTT12=
EXTT13=
PLAYORDER=
